<svg xmlns="http://www.w3.org/2000/svg" width="73.47" height="73.47" viewBox="0 0 73.47 73.47"><defs><style>.cls-1{fill:#0369be;}.cls-2{fill:#fff;}</style></defs><title>ICON-CF</title><g id="Camada_2" data-name="Camada 2"><g id="Camada_1-2" data-name="Camada 1"><path class="cls-1" d="M18,0H55.46a18,18,0,0,1,18,18V55.46a18,18,0,0,1-18,18H18a18,18,0,0,1-18-18V18A18,18,0,0,1,18,0Z"/><path class="cls-1" d="M69.12,34.92c0,9-5,17.3-13.51,22.51l3.31,10.26a1.7,1.7,0,0,1-2.47,2L43.43,62a37.48,37.48,0,0,1-6.7.62C18.88,62.63,4.35,50.2,4.35,34.92S18.88,7.19,36.73,7.19,69.12,19.63,69.12,34.92ZM52.75,55.17c8.13-4.53,13-12.11,13-20.26,0-13.42-13-24.33-29-24.33s-29,10.91-29,24.33,13,24.32,29,24.32a34.32,34.32,0,0,0,6.68-.68,1.66,1.66,0,0,1,.33,0,1.69,1.69,0,0,1,.86.24l9.72,5.72L52,57.18A1.7,1.7,0,0,1,52.75,55.17Z"/><path class="cls-2" d="M65.73,34.92c0,8.15-4.85,15.72-13,20.26a1.7,1.7,0,0,0-.79,2l2.36,7.3-9.72-5.72a1.69,1.69,0,0,0-.86-.24,1.66,1.66,0,0,0-.33,0,34.32,34.32,0,0,1-6.68.68c-16,0-29-10.91-29-24.32s13-24.33,29-24.33S65.73,21.5,65.73,34.92ZM53.22,22.6a1.35,1.35,0,0,0-.9-1.74l-14-4.17-1.2-.37a1.33,1.33,0,0,0-.78,0l-15.2,4.53a1.36,1.36,0,0,0-.9,1.74l1.91,5.56v7.46h0v3.85a14.57,14.57,0,0,0,29.15,0V35.63h0V28.17Z"/><path class="cls-1" d="M53.14,21.54a1.35,1.35,0,0,1,.08,1.06l-1.89,5.56v-.22a1.35,1.35,0,0,0-.92-1.28l1.52-4.49L38,18l-1.2-.37-15.2,4.53,1.54,4.5a1.35,1.35,0,0,0-.92,1.28v.22l-1.91-5.56a1.36,1.36,0,0,1,.9-1.74l15.2-4.53a1.33,1.33,0,0,1,.78,0l1.2.37,14,4.17A1.35,1.35,0,0,1,53.14,21.54Z"/><path class="cls-1" d="M51.94,22.17l-1.52,4.49a1.28,1.28,0,0,0-.44-.07,1.35,1.35,0,0,0-.76.23L49,26.59l1.2-3.52L37.58,19.3,38,18Z"/><path class="cls-1" d="M51.34,35.63v3.86a14.57,14.57,0,0,1-29.15,0V35.64s0,.07,0,.1a.69.69,0,0,0,0,.1,1.08,1.08,0,0,0,.05.21l0,.1a1.23,1.23,0,0,0,.1.19,1,1,0,0,0,.12.16h0a12.87,12.87,0,0,0,2.39,2.22v.75a11.86,11.86,0,0,0,23.72,0v-1a15.93,15.93,0,0,0,2.29-1.84l0,0,.08-.1.09-.12a1.15,1.15,0,0,0,.12-.22,1.66,1.66,0,0,0,.07-.23.64.64,0,0,0,0-.07.47.47,0,0,0,0-.08A1.21,1.21,0,0,0,51.34,35.63Z"/><path class="cls-1" d="M51.34,35.63h0a1.21,1.21,0,0,1,0,.13.44.44,0,0,1,0,.08.34.34,0,0,1,0,.07,1.66,1.66,0,0,1-.07.23,1.3,1.3,0,0,1-.12.22l-.09.12-.08.1,0,0a1.36,1.36,0,0,1-2-.09,11.48,11.48,0,0,0,1-.89H48.62A1.36,1.36,0,0,1,50,34.27h.18l.1,0,.12,0,.11,0,.07,0h0l.08,0a1.31,1.31,0,0,1,.26.19l0,0,.07.08.07.1,0,.07,0,.07a1.14,1.14,0,0,1,.09.22,1.26,1.26,0,0,1,0,.13.68.68,0,0,1,0,.09A1.17,1.17,0,0,1,51.34,35.63Z"/><path class="cls-1" d="M51.34,28.17v7.46a1.17,1.17,0,0,0,0-.18.68.68,0,0,0,0-.09l0-.13a1.14,1.14,0,0,0-.09-.22l0-.07,0-.07-.07-.1L51,34.69l0,0a1.31,1.31,0,0,0-.26-.19l-.08,0h0l-.07,0-.11,0-.12,0-.1,0H48.62v-5H50a1.36,1.36,0,0,0,1.29-.92Z"/><path class="cls-1" d="M51.34,27.95v.22l-.07.22A1.36,1.36,0,0,1,50,29.3H48.62V27.95H50l.44-1.29A1.35,1.35,0,0,1,51.34,27.95Z"/><path class="cls-1" d="M51.32,35.83a.44.44,0,0,0,0-.08A.47.47,0,0,1,51.32,35.83Z"/><path class="cls-1" d="M51.32,35.45a.68.68,0,0,0,0-.09A.68.68,0,0,1,51.32,35.45Z"/><path class="cls-1" d="M51.31,35.9a.34.34,0,0,0,0-.07A.64.64,0,0,1,51.31,35.9Z"/><path class="cls-1" d="M51.31,35.36a1.26,1.26,0,0,0,0-.13Z"/><path class="cls-1" d="M51.18,35l0-.07Z"/><path class="cls-1" d="M51.12,36.35a1.3,1.3,0,0,0,.12-.22A1.15,1.15,0,0,1,51.12,36.35Z"/><path class="cls-1" d="M51.1,34.86l-.07-.1Z"/><path class="cls-1" d="M51,36.57l.08-.1Z"/><path class="cls-1" d="M50.9,34.64l0,0Z"/><path class="cls-1" d="M50.64,34.45l-.08,0Z"/><path class="cls-1" d="M50.55,34.4l-.07,0Z"/><path class="cls-1" d="M50.41,26.66,50,27.95H48.62A1.36,1.36,0,0,1,50,26.59,1.28,1.28,0,0,1,50.41,26.66Z"/><path class="cls-1" d="M50.37,34.33l-.12,0Z"/><path class="cls-1" d="M50.25,34.3l-.1,0Z"/><path class="cls-1" d="M50.2,23.07,49,26.59H36.76v-.35a3.23,3.23,0,0,0,.66-6.4l.16-.54Z"/><path class="cls-1" d="M50.15,34.28h0Z"/><path class="cls-1" d="M50,37a1.35,1.35,0,0,0,.94-.38,15.93,15.93,0,0,1-2.29,1.84V36.78l.34-.26A1.35,1.35,0,0,0,50,37Z"/><path class="cls-1" d="M48.62,34.27H50a1.36,1.36,0,0,0-1.36,1.36Z"/><path class="cls-1" d="M48.62,35.63H50a11.48,11.48,0,0,1-1,.89A1.35,1.35,0,0,1,48.62,35.63Z"/><path class="cls-1" d="M49,26.59l.21.23a1.35,1.35,0,0,0-.6,1.12H36.76V26.59Z"/><path class="cls-1" d="M49,36.52l-.34.26V35.63A1.35,1.35,0,0,0,49,36.52Z"/><path class="cls-2" d="M48.62,38.45v1a11.86,11.86,0,0,1-23.72,0v-.75a18.68,18.68,0,0,0,11.29,3.48A22.1,22.1,0,0,0,48.62,38.45Z"/><path class="cls-1" d="M48.62,36.78v1.67a22.1,22.1,0,0,1-12.43,3.77A18.68,18.68,0,0,1,24.9,38.73V37a17,17,0,0,0,11.29,3.86A20.74,20.74,0,0,0,48.62,36.78Z"/><path class="cls-1" d="M48.62,35.63v1.15a20.74,20.74,0,0,1-12.43,4.08A17,17,0,0,1,24.9,37V35.63H48.62ZM45.82,37H27.13a16.28,16.28,0,0,0,9.06,2.51A19.53,19.53,0,0,0,45.82,37Z"/><polygon class="cls-1" points="48.62 34.27 48.62 35.63 36.19 35.63 24.9 35.63 24.9 34.27 48.62 34.27"/><rect class="cls-2" x="24.9" y="29.3" width="23.72" height="4.97"/><polygon class="cls-1" points="48.62 27.95 48.62 29.3 24.9 29.3 24.9 27.95 36.19 27.95 36.76 27.95 48.62 27.95"/><path class="cls-1" d="M27.13,37H45.82a19.53,19.53,0,0,1-9.63,2.51A16.28,16.28,0,0,1,27.13,37Z"/><path class="cls-1" d="M39.26,21a3.23,3.23,0,0,1-2.5,5.28v-.17A3.06,3.06,0,0,0,37.38,20l0-.16A3.24,3.24,0,0,1,39.26,21Z"/><path class="cls-1" d="M37.38,20a3.09,3.09,0,1,1-.61-.06A3.18,3.18,0,0,1,37.38,20Zm2.28,3a2.91,2.91,0,0,0-2.32-2.84,3,3,0,0,0-.58-.06A2.89,2.89,0,1,0,39.66,23Z"/><path class="cls-2" d="M37.34,20.17a2.91,2.91,0,1,1-.58-.06A3,3,0,0,1,37.34,20.17Z"/><path class="cls-1" d="M38,18l-.38,1.3-.83-.25-1.12.33L23.31,23.06l1.2,3.49-.43.15a1.35,1.35,0,0,0-.53-.11,1.32,1.32,0,0,0-.44.08l-1.54-4.5,15.2-4.53Z"/><path class="cls-1" d="M37.58,19.3l-.16.54h0a3.24,3.24,0,0,0-.65-.07,3.29,3.29,0,0,0-1,.14l-.16-.53,1.12-.33Z"/><path class="cls-1" d="M37.42,19.84l0,.16a3.18,3.18,0,0,0-.61-.06,3.06,3.06,0,1,0,0,6.13v.17a3.23,3.23,0,0,1-1-6.32,3.29,3.29,0,0,1,1-.14,3.24,3.24,0,0,1,.65.07Z"/><path class="cls-1" d="M36.76,26.59v1.36H24.9a1.36,1.36,0,0,0-.83-1.25l.43-.15v0Z"/><path class="cls-1" d="M36.76,26.24v.35H24.52v0l-1.2-3.49,12.33-3.68.16.53a3.23,3.23,0,0,0,1,6.32Z"/><path class="cls-1" d="M24.9,37v1.74a12.87,12.87,0,0,1-2.39-2.22,1.36,1.36,0,0,0,1,.47,1.34,1.34,0,0,0,.93-.37Z"/><path class="cls-1" d="M24.9,35.63V37l-.43-.38A1.34,1.34,0,0,0,24.9,35.63Z"/><path class="cls-1" d="M24.9,34.27v1.36a1.36,1.36,0,0,0-1.36-1.36Z"/><path class="cls-1" d="M24.9,29.3v5H23.38l-.23,0-.14,0-.12.06a1.37,1.37,0,0,0-.22.15l-.08.07-.06.06-.06.07-.06.08-.05.08,0,.07,0,.08,0,.07a.85.85,0,0,0,0,.13,1.25,1.25,0,0,0,0,.21,1.08,1.08,0,0,0,0,.12V28.17l.08.22a1.36,1.36,0,0,0,1.28.92Z"/><path class="cls-1" d="M24.9,27.95V29.3H23.55a1.36,1.36,0,0,1-1.28-.92l-.08-.22v-.22a1.35,1.35,0,0,1,.92-1.28l.44,1.28Z"/><path class="cls-1" d="M24.9,27.95H23.55l-.44-1.28a1.32,1.32,0,0,1,.44-.08,1.35,1.35,0,0,1,1.36,1.36Z"/><path class="cls-1" d="M24.9,35.63H23.55a8.42,8.42,0,0,0,.93,1,1.34,1.34,0,0,1-.93.37,1.36,1.36,0,0,1-1-.47h0l-.05-.07-.06-.09-.1-.19,0-.1a1.39,1.39,0,0,1-.05-.21s0-.06,0-.1,0-.07,0-.1h0a1.08,1.08,0,0,1,0-.12,1.25,1.25,0,0,1,0-.21l0-.13,0-.07,0-.08,0-.07.05-.08.06-.08.06-.07.06-.06.08-.07a1.42,1.42,0,0,1,.22-.15l.12-.06.14,0,.23,0h.17A1.36,1.36,0,0,1,24.9,35.63Z"/><path class="cls-1" d="M23.55,35.63H24.9a1.34,1.34,0,0,1-.43,1A8.42,8.42,0,0,1,23.55,35.63Z"/><path class="cls-1" d="M23.45,34.27h0Z"/><path class="cls-1" d="M23.38,34.28l-.23,0Z"/><path class="cls-1" d="M23,34.38l-.12.06Z"/><path class="cls-1" d="M22.68,34.58a1.37,1.37,0,0,1,.22-.15A1.42,1.42,0,0,0,22.68,34.58Z"/><path class="cls-1" d="M22.61,34.65l-.06.06Z"/><path class="cls-1" d="M22.55,34.71l-.06.07Z"/><path class="cls-1" d="M22.46,36.44l.05.07a1,1,0,0,1-.12-.16Z"/><path class="cls-1" d="M22.43,34.86l-.05.08Z"/><path class="cls-1" d="M22.38,34.94l0,.07Z"/><path class="cls-1" d="M22.4,36.35a1.23,1.23,0,0,1-.1-.19Z"/><path class="cls-1" d="M22.3,35.09l0,.07Z"/><path class="cls-1" d="M22.23,35.3a.85.85,0,0,1,0-.13Z"/><path class="cls-1" d="M22.21,35.84a1.39,1.39,0,0,0,.05.21A1.08,1.08,0,0,1,22.21,35.84Z"/><path class="cls-1" d="M22.19,35.74s0,.06,0,.1A.69.69,0,0,1,22.19,35.74Z"/><path class="cls-1" d="M22.2,35.51a1.08,1.08,0,0,0,0,.12A1.08,1.08,0,0,1,22.2,35.51Z"/></g></g></svg>