<svg xmlns="http://www.w3.org/2000/svg" width="230" height="67.09" viewBox="0 0 230 67.09"><defs><style>.cls-1{fill:#e30613;}.cls-2{fill:#0369be;}.cls-3{fill:#fff;}</style></defs><title>LOGO-SCROLL</title><g id="Camada_2" data-name="Camada 2"><g id="Camada_1-2" data-name="Camada 1"><rect class="cls-1" x="85.18" y="7.8" width="144.82" height="29.53" rx="14.76" ry="14.76"/><path class="cls-2" d="M97.15,40.15a26.44,26.44,0,0,1,3.24.95,9,9,0,0,1,5,5.39,13.13,13.13,0,0,1,.14,9.06,9.13,9.13,0,0,1-8.58,6.61c-3.76.23-7.55,0-11.43,0v-.95q0-10.08,0-20.16c0-.32,0-.64-.06-1Zm-5.94,16.6c1.66,0,3.24.07,4.81,0a4.45,4.45,0,0,0,4.15-3.35,7.44,7.44,0,0,0,0-4.51,4,4,0,0,0-3.11-3c-1.9-.29-3.85-.26-5.81-.37Z" transform="translate(-0.25 -0.25)"/><path class="cls-2" d="M142.84,40.15c.55.13,1.1.24,1.64.4a7.28,7.28,0,0,1,5.32,7c.16,3.48-1,6.29-4.32,8.06l4.76,6.67h-2.82c-1.14,0-2.28,0-3.41,0a1.22,1.22,0,0,1-.82-.43c-1.21-1.65-2.37-3.34-3.59-5a1.36,1.36,0,0,0-.88-.47c-.73-.07-1.48,0-2.31,0v5.89h-5.66v-.93q0-10.09,0-20.17c0-.32,0-.64-.06-1Zm-6.42,11c2,0,3.85.1,5.73,0,1.4-.1,2.19-1.32,2.18-2.88s-.82-2.69-2.27-2.8c-1.86-.13-3.73,0-5.64,0Z" transform="translate(-0.25 -0.25)"/><path class="cls-2" d="M175.92,40.15v5.48H164.66v3.18h9.19v5.14h-9.2v2.81h11.22v5.44H158.92v-.92q0-10.08,0-20.17c0-.32,0-.64-.06-1Z" transform="translate(-0.25 -0.25)"/><path class="cls-2" d="M221.31,40.15l5.34,13.14q1.65,4.07,3.29,8.15l.31.8c-2,0-3.89,0-5.79,0a.8.8,0,0,1-.53-.46c-.37-.88-.69-1.79-1.06-2.77h-1.51c-2.2,0-4.4,0-6.59,0a.68.68,0,0,0-.79.56c-.17.57-.49,1.09-.61,1.66-.19.92-.69,1.1-1.56,1.06-1.63-.08-3.26,0-5,0,.54-1.34,1-2.61,1.56-3.88l7.14-17.6c.08-.2.13-.42.19-.63Zm-.39,13.71-2.39-6.45-2.42,6.45Z" transform="translate(-0.25 -0.25)"/><path class="cls-2" d="M203.22,40.15v5.47h-6.81V62.21h-5.66V45.69h-7V40.15Z" transform="translate(-0.25 -0.25)"/><path class="cls-2" d="M120.89,40.15c0,.3,0,.59,0,.89q0,10.12,0,20.24v.93h-5.69v-.93q0-10.08,0-20.16c0-.32,0-.64-.06-1Z" transform="translate(-0.25 -0.25)"/><path class="cls-3" d="M157.16,11.75c0,.2,0,.39,0,.59q0,10.42,0,20.83c0,.2,0,.39,0,.68-1.54,0-3.06,0-4.59,0-.22,0-.45-.34-.63-.56l-9.07-11.34-.27-.3V33.8H136.9v-.93q0-10.08,0-20.16c0-.32,0-.64-.06-1h4.9l9.69,12.16c.15-2.43.15-4.78.15-7.12,0-1.68,0-3.36,0-5Z" transform="translate(-0.25 -0.25)"/><path class="cls-3" d="M187.42,11.75c0,.2,0,.39,0,.59q0,10.42,0,20.84c0,.19,0,.39,0,.63h-5.62V25.69h-9v8.11h-5.65v-.94q0-10.09,0-20.17c0-.32,0-.64-.06-1h5.64c0,.27.06.54.06.8q0,3.48,0,7v.78h9V11.75Z" transform="translate(-0.25 -0.25)"/><path class="cls-3" d="M210.26,11.75l5.34,13.14Q217.25,29,218.89,33l.31.8c-2,0-3.89,0-5.79,0a.8.8,0,0,1-.53-.46c-.37-.88-.69-1.79-1.06-2.77H210.3c-2.2,0-4.4,0-6.6,0a.68.68,0,0,0-.79.56c-.17.57-.49,1.09-.61,1.66-.19.92-.69,1.1-1.56,1.06-1.62-.08-3.26,0-5,0,.54-1.34,1-2.61,1.56-3.88l7.14-17.6c.08-.2.13-.42.19-.63Zm-.38,13.72L207.48,19l-2.42,6.46Z" transform="translate(-0.25 -0.25)"/><path class="cls-3" d="M102.12,11.75c0,.29.06.59.06.88q0,7.38,0,14.75v1h10.57v5.5H96.48V11.75Z" transform="translate(-0.25 -0.25)"/><path class="cls-3" d="M127,11.75c0,.3,0,.59,0,.89q0,10.12,0,20.24v.93h-5.69v-.93q0-10.08,0-20.16c0-.32,0-.64-.06-1Z" transform="translate(-0.25 -0.25)"/><path class="cls-2" d="M34.32,30.67H49.07a21.63,21.63,0,0,1-14.75,5.59c-9.33,0-13.53-5.59-13.53-5.59Z" transform="translate(-0.25 -0.25)"/><path class="cls-2" d="M34.93,11.42l1.29.39L35.58,14a3.34,3.34,0,0,0-.66-.07,3.28,3.28,0,1,0,0,6.56v2H20.79l-2.12-6.18Z" transform="translate(-0.25 -0.25)"/><path class="cls-2" d="M38.21,17.17A3.28,3.28,0,0,0,35.58,14l.63-2.14,14.95,4.46-2.1,6.18H34.93v-2A3.29,3.29,0,0,0,38.21,17.17Z" transform="translate(-0.25 -0.25)"/><path class="cls-2" d="M49.07,32.12a1.45,1.45,0,0,1-1.45-1.45V22.45a1.45,1.45,0,0,1,2.9,0v8.22A1.45,1.45,0,0,1,49.07,32.12Z" transform="translate(-0.25 -0.25)"/><path class="cls-2" d="M20.79,32.12a1.45,1.45,0,0,1-1.45-1.45V22.45a1.45,1.45,0,0,1,2.9,0v8.22A1.45,1.45,0,0,1,20.79,32.12Z" transform="translate(-0.25 -0.25)"/><path class="cls-2" d="M34.32,37.72c-9.94,0-14.5-5.92-14.69-6.18a1.45,1.45,0,0,1,1.16-2.32H49.07a1.45,1.45,0,0,1,1,2.46A23,23,0,0,1,34.32,37.72Zm-9.69-5.59a17.42,17.42,0,0,0,9.69,2.69,20.89,20.89,0,0,0,10.31-2.69Z" transform="translate(-0.25 -0.25)"/><path class="cls-2" d="M49.07,23.91H20.79a1.45,1.45,0,0,1-1.37-1L17.3,16.74a1.45,1.45,0,0,1,1-1.86L34.51,10a1.43,1.43,0,0,1,.84,0l1.29.39,14.94,4.46a1.45,1.45,0,0,1,1,1.86l-2.1,6.18A1.45,1.45,0,0,1,49.07,23.91ZM21.83,21H48l1.28-3.77-14.38-4.3L20.53,17.23Z" transform="translate(-0.25 -0.25)"/><path class="cls-2" d="M34.93,20.63a3.46,3.46,0,1,1,.69-6.85h0a3.46,3.46,0,0,1-.69,6.85Zm0-6.56a3.09,3.09,0,1,0,.62.06h0A3.21,3.21,0,0,0,34.93,14.07Z" transform="translate(-0.25 -0.25)"/><path class="cls-2" d="M34.93,50.39A15.61,15.61,0,0,1,19.34,34.8V30.67a1.45,1.45,0,1,1,2.9,0V34.8a12.69,12.69,0,0,0,25.37,0V30.67a1.45,1.45,0,0,1,2.9,0V34.8A15.61,15.61,0,0,1,34.93,50.39Z" transform="translate(-0.25 -0.25)"/><path class="cls-2" d="M69.55,29.91c0,9.61-5.38,18.52-14.46,24.09l3.55,11a1.81,1.81,0,0,1-1.73,2.37A1.8,1.8,0,0,1,56,67.1L42.07,58.9a40.11,40.11,0,0,1-7.17.66C15.79,59.56.25,46.26.25,29.91S15.79.25,34.9.25,69.55,13.56,69.55,29.91ZM52,51.59c8.7-4.85,13.89-13,13.89-21.67,0-14.36-13.92-26-31-26s-31,11.68-31,26,13.91,26,31,26A36.72,36.72,0,0,0,42,55.21a1.77,1.77,0,0,1,.35,0,1.81,1.81,0,0,1,.92.25l10.39,6.12-2.53-7.82A1.82,1.82,0,0,1,52,51.59Z" transform="translate(-0.25 -0.25)"/></g></g></svg>