<svg xmlns="http://www.w3.org/2000/svg" width="250" height="229.59" viewBox="0 0 250 229.59"><defs><style>.cls-1{fill:#e30613;}.cls-2{fill:#0369be;}.cls-3{fill:#fff;}</style></defs><title>LOGO</title><g id="Camada_2" data-name="Camada 2"><g id="Camada_1-2" data-name="Camada 1"><rect class="cls-1" y="135.97" width="250" height="50.97" rx="25.48" ry="25.48"/><path class="cls-2" d="M20.23,191.64a45.65,45.65,0,0,1,5.59,1.64,15.58,15.58,0,0,1,8.6,9.3,22.67,22.67,0,0,1,.23,15.65c-2.4,7-7.5,11-14.81,11.42-6.5.39-13,.08-19.73.08v-1.63q0-17.4,0-34.8c0-.55-.07-1.1-.1-1.65ZM10,220.3c2.87,0,5.6.13,8.31,0a7.68,7.68,0,0,0,7.16-5.78,12.84,12.84,0,0,0-.08-7.79C24.5,204,22.75,202,20,201.58c-3.28-.5-6.65-.45-10-.63Z" transform="translate(0 -0.25)"/><path class="cls-2" d="M99.11,191.64c.94.23,1.9.41,2.82.69,5.48,1.64,8.9,6.07,9.18,12.05s-1.75,10.86-7.45,13.91l8.22,11.51H107c-2,0-3.93,0-5.89,0a2.1,2.1,0,0,1-1.42-.74c-2.1-2.85-4.09-5.77-6.19-8.62a2.35,2.35,0,0,0-1.52-.81c-1.27-.12-2.55,0-4,0v10.16H78.21v-1.61q0-17.41,0-34.82c0-.55-.07-1.1-.1-1.65ZM88,210.55c3.37,0,6.65.18,9.89-.06,2.42-.18,3.79-2.27,3.76-5s-1.41-4.65-3.93-4.83c-3.21-.22-6.44-.05-9.73-.05Z" transform="translate(0 -0.25)"/><path class="cls-2" d="M156.21,191.64v9.46H136.77v5.49h15.86v8.86H136.75v4.84h19.36v9.4H126.87V228.1q0-17.41,0-34.81c0-.55-.07-1.1-.1-1.65Z" transform="translate(0 -0.25)"/><path class="cls-2" d="M234.57,191.64q4.61,11.34,9.21,22.69,2.85,7,5.68,14.08c.17.42.33.85.54,1.39-3.44,0-6.72,0-10,0a1.39,1.39,0,0,1-.92-.79c-.64-1.53-1.19-3.09-1.82-4.78h-2.61c-3.8,0-7.59,0-11.38,0a1.18,1.18,0,0,0-1.37,1c-.29,1-.85,1.88-1,2.87-.32,1.58-1.2,1.9-2.69,1.83-2.81-.14-5.62,0-8.64,0,.93-2.31,1.8-4.5,2.69-6.69l12.32-30.38c.14-.35.23-.72.34-1.09Zm-.67,23.67-4.12-11.14L225.6,215.3Z" transform="translate(0 -0.25)"/><path class="cls-2" d="M203.33,191.64v9.44H191.58v28.64h-9.76V201.19h-12v-9.55Z" transform="translate(0 -0.25)"/><path class="cls-2" d="M61.2,191.64c0,.51-.06,1-.06,1.53q0,17.47,0,34.94v1.6H51.33v-1.61q0-17.4,0-34.81c0-.55-.07-1.1-.1-1.65Z" transform="translate(0 -0.25)"/><path class="cls-3" d="M123.82,142.6c0,.34.09.68.09,1q0,18,0,36c0,.34,0,.68-.05,1.18-2.66,0-5.29,0-7.92,0-.37,0-.78-.59-1.09-1Q107,170,99.19,160.16l-.46-.52v21H88.84v-1.61q0-17.4,0-34.81c0-.55-.07-1.1-.1-1.65h8.45l16.73,21c.26-4.2.27-8.25.25-12.3,0-2.9-.05-5.79-.08-8.69Z" transform="translate(0 -0.25)"/><path class="cls-3" d="M176.06,142.6c0,.34.09.68.09,1q0,18,0,36c0,.34,0,.67-.05,1.09h-9.7v-14H150.84v14h-9.75v-1.61q0-17.41,0-34.82c0-.55-.07-1.1-.1-1.65h9.73c0,.46.11.93.11,1.39q0,6,0,12v1.35h15.51V142.6Z" transform="translate(0 -0.25)"/><path class="cls-3" d="M215.5,142.6q4.61,11.34,9.21,22.69,2.85,7,5.68,14.08c.17.42.33.85.54,1.39-3.44,0-6.72,0-10,0a1.39,1.39,0,0,1-.92-.79c-.64-1.53-1.19-3.09-1.82-4.78h-2.61c-3.8,0-7.59,0-11.38,0a1.18,1.18,0,0,0-1.37,1c-.29,1-.85,1.88-1,2.87-.32,1.58-1.19,1.9-2.69,1.83-2.81-.14-5.62,0-8.64,0,.93-2.31,1.8-4.5,2.69-6.69l12.32-30.38c.14-.35.23-.72.34-1.09Zm-.66,23.69-4.15-11.15-4.17,11.15Z" transform="translate(0 -0.25)"/><path class="cls-3" d="M28.81,142.6c0,.51.11,1,.11,1.52q0,12.73,0,25.47v1.67H47.16v9.5H19.08V142.6Z" transform="translate(0 -0.25)"/><path class="cls-3" d="M71.83,142.6c0,.51-.06,1-.06,1.53q0,17.47,0,34.94v1.6H62v-1.61q0-17.4,0-34.81c0-.55-.07-1.1-.1-1.65Z" transform="translate(0 -0.25)"/><path class="cls-2" d="M122.9,52.77h25.46a37.33,37.33,0,0,1-25.46,9.66c-16.11,0-23.35-9.66-23.35-9.66Z" transform="translate(0 -0.25)"/><path class="cls-2" d="M124,19.53l2.23.68-1.09,3.7a5.76,5.76,0,0,0-1.13-.11,5.66,5.66,0,1,0,0,11.32v3.47H99.55L95.89,27.91Z" transform="translate(0 -0.25)"/><path class="cls-2" d="M129.61,29.45a5.67,5.67,0,0,0-4.53-5.55l1.09-3.7,25.8,7.7-3.62,10.68H124V35.11A5.68,5.68,0,0,0,129.61,29.45Z" transform="translate(0 -0.25)"/><path class="cls-2" d="M148.36,55.27a2.51,2.51,0,0,1-2.51-2.51V38.58a2.51,2.51,0,0,1,5,0V52.77A2.51,2.51,0,0,1,148.36,55.27Z" transform="translate(0 -0.25)"/><path class="cls-2" d="M99.55,55.27A2.51,2.51,0,0,1,97,52.77V38.58a2.51,2.51,0,1,1,5,0V52.77A2.51,2.51,0,0,1,99.55,55.27Z" transform="translate(0 -0.25)"/><path class="cls-2" d="M122.9,64.93c-17.16,0-25-10.22-25.36-10.66a2.51,2.51,0,0,1,2-4h48.82a2.51,2.51,0,0,1,1.8,4.25A39.64,39.64,0,0,1,122.9,64.93Zm-16.73-9.66a30.07,30.07,0,0,0,16.73,4.64,36.07,36.07,0,0,0,17.79-4.64Z" transform="translate(0 -0.25)"/><path class="cls-2" d="M148.36,41.09H99.55a2.51,2.51,0,0,1-2.37-1.69L93.52,28.72a2.5,2.5,0,0,1,1.65-3.21l28.07-8.37a2.47,2.47,0,0,1,1.45,0l2.23.68L152.7,25.5a2.51,2.51,0,0,1,1.66,3.21l-3.62,10.68A2.51,2.51,0,0,1,148.36,41.09Zm-47-5h45.23l2.21-6.51-24.83-7.41L99.11,29.56Z" transform="translate(0 -0.25)"/><path class="cls-2" d="M124,35.43a6,6,0,1,1,1.19-11.82h0A6,6,0,0,1,124,35.43Zm0-11.32a5.34,5.34,0,1,0,1.07.11h0A5.54,5.54,0,0,0,124,24.11Z" transform="translate(0 -0.25)"/><path class="cls-2" d="M124,86.81A26.94,26.94,0,0,1,97,59.9V52.77a2.51,2.51,0,1,1,5,0V59.9a21.9,21.9,0,0,0,43.8,0V52.77a2.51,2.51,0,0,1,5,0V59.9A26.94,26.94,0,0,1,124,86.81Z" transform="translate(0 -0.25)"/><path class="cls-2" d="M183.72,51.46c0,16.59-9.28,32-25,41.58L164.88,112a3.13,3.13,0,0,1-4.57,3.67l-24-14.14a69.24,69.24,0,0,1-12.37,1.14c-33,0-59.81-23-59.81-51.19S90.92.25,123.91.25,183.72,23.22,183.72,51.46ZM153.48,88.87c15-8.37,24-22.36,24-37.41,0-24.78-24-44.94-53.55-44.94S70.36,26.67,70.36,51.46s24,44.92,53.55,44.92a63.7,63.7,0,0,0,12.34-1.25,2.78,2.78,0,0,1,.61-.06,3.11,3.11,0,0,1,1.59.43l17.95,10.56L152,92.57A3.14,3.14,0,0,1,153.48,88.87Z" transform="translate(0 -0.25)"/></g></g></svg>